<svg width="808" height="808" viewBox="0 0 808 808" fill="none" xmlns="http://www.w3.org/2000/svg">
<path d="M723.79 84.42C647.55 8.48 537.94 0 404 0C269.89 0 160.12 8.58 83.92 84.72C7.72 160.86 0 270.43 0 404.39C0 538.35 7.74 648 84 724.14C160.26 800.28 269.9 808 404 808C538.1 808 647.85 800.29 724 724.14C800.15 647.99 808 538.36 808 404.39C808 270.25 800.16 160.54 723.79 84.42Z" fill="white"/>
<path d="M675.8 308.4V390.6H314V308.4H675.8ZM649.4 178.2V259.8H333.2V178.2H649.4ZM537.8 130.8V358.8H449.6V130.8H537.8ZM660.8 445.8V526.2H497.6V445.8H660.8ZM539.6 364.2V623.4H451.4V364.2H539.6ZM269 374.4V679.2H186.2V412.8L269 374.4ZM262.4 622.2C280.8 601.4 294.4 582 303.2 564C312.4 546 319 526.8 323 506.4C327 486 330.4 458 333.2 422.4L417.2 432.6C411.6 491 402.4 539.4 389.6 577.8C376.8 616.2 356.2 651.2 327.8 682.8L262.4 622.2ZM396.8 495.6C403.6 520.8 412.8 540 424.4 553.2C436.4 566.4 450.6 575.4 467 580.2C483.4 585 504.2 587.4 529.4 587.4H677L660.2 668.4H529.4C494.6 668.4 465.4 664.6 441.8 657C418.2 649.8 397.6 636.8 380 618C362.8 598.8 348 572 335.6 537.6L396.8 495.6ZM128.6 434.4C149 415.6 171 390.8 194.6 360C218.6 328.8 238.2 299.8 253.4 273L320.6 321.6C304.2 352 279.8 386.8 247.4 426C215.4 464.8 183.8 498.8 152.6 528L128.6 434.4ZM131.6 249.6C149.6 235.6 168.2 216.8 187.4 193.2C207 169.2 225.6 143 243.2 114.6L315.8 168C297.8 194 275.6 222.4 249.2 253.2C223.2 283.6 195.4 313.2 165.8 342L131.6 249.6Z" fill="black"/>
</svg>
