<svg width="808" height="808" viewBox="0 0 808 808" fill="none" xmlns="http://www.w3.org/2000/svg">
<g clip-path="url(#clip0_425_16)">
<path d="M723.79 84.42C647.55 8.48 537.94 0 404 0C269.89 0 160.12 8.58 83.92 84.72C7.72 160.86 0 270.43 0 404.39C0 538.35 7.74 648 84 724.14C160.26 800.28 269.9 808 404 808C538.1 808 647.85 800.29 724 724.14C800.15 647.99 808 538.36 808 404.39C808 270.25 800.16 160.54 723.79 84.42Z" fill="white"/>
<path d="M671.6 327V382.2H311V327H671.6ZM649.4 198V253.8H334.4V198H649.4ZM518.6 126.6V358.2H459.8V126.6H518.6ZM650 459.6V515.4H498.2V459.6H650ZM522.8 363.6V625.8H464V363.6H522.8ZM259.4 372.6V675H203V399.6L259.4 372.6ZM268.4 637.2C287.2 615.2 301.6 594.4 311.6 574.8C321.6 554.8 329 533.6 333.8 511.2C339 488.4 343 459.2 345.8 423.6L401 429.6C396.2 486.4 387.2 533.8 374 571.8C361.2 609.8 340.4 645.4 311.6 678.6L268.4 637.2ZM383 495.6C390.6 522.8 400.8 544.4 413.6 560.4C426.4 576 441.8 587.2 459.8 594C477.8 600.4 499.8 603.6 525.8 603.6H671.6L660.2 657.6H525.8C493 657.6 465.2 653.4 442.4 645C419.6 637 399.8 623.4 383 604.2C366.6 584.6 352.6 558 341 524.4L383 495.6ZM135.2 450C156.8 430.4 179.8 403.6 204.2 369.6C229 335.2 249.4 303 265.4 273L310.4 306.6C292.8 340.6 269.2 377.2 239.6 416.4C210.4 455.2 182 487.2 154.4 512.4L135.2 450ZM141.2 266.4C161.6 250.4 183.6 228.8 207.2 201.6C230.8 174.4 250.6 148.2 266.6 123L314 159.6C297.2 185.2 275 213.6 247.4 244.8C219.8 276 192.4 303.6 165.2 327.6L141.2 266.4Z" fill="black"/>
</g>
<defs>
<clipPath id="clip0_425_16">
<rect width="808" height="808" fill="white"/>
</clipPath>
</defs>
</svg>
