<svg width="808" height="808" viewBox="0 0 808 808" fill="none" xmlns="http://www.w3.org/2000/svg">
<g clip-path="url(#clip0_425_16)">
<path d="M723.79 84.42C647.55 8.48 537.94 0 404 0C269.89 0 160.12 8.58 83.92 84.72C7.72 160.86 0 270.43 0 404.39C0 538.35 7.74 648 84 724.14C160.26 800.28 269.9 808 404 808C538.1 808 647.85 800.29 724 724.14C800.15 647.99 808 538.36 808 404.39C808 270.25 800.16 160.54 723.79 84.42Z" fill="black"/>
<path d="M630.5 323.5V392H329V323.5H630.5ZM608.5 215V283H345V215H608.5ZM515.5 175.5V365.5H442V175.5H515.5ZM618 438V505H482V438H618ZM517 370V586H443.5V370H517ZM291.5 378.5V632.5H222.5V410.5L291.5 378.5ZM286 585C301.333 567.667 312.667 551.5 320 536.5C327.667 521.5 333.167 505.5 336.5 488.5C339.833 471.5 342.667 448.167 345 418.5L415 427C410.333 475.667 402.667 516 392 548C381.333 580 364.167 609.167 340.5 635.5L286 585ZM398 479.5C403.667 500.5 411.333 516.5 421 527.5C431 538.5 442.833 546 456.5 550C470.167 554 487.5 556 508.5 556H631.5L617.5 623.5H508.5C479.5 623.5 455.167 620.333 435.5 614C415.833 608 398.667 597.167 384 581.5C369.667 565.5 357.333 543.167 347 514.5L398 479.5ZM174.5 428.5C191.5 412.833 209.833 392.167 229.5 366.5C249.5 340.5 265.833 316.333 278.5 294L334.5 334.5C320.833 359.833 300.5 388.833 273.5 421.5C246.833 453.833 220.5 482.167 194.5 506.5L174.5 428.5ZM177 274.5C192 262.833 207.5 247.167 223.5 227.5C239.833 207.5 255.333 185.667 270 162L330.5 206.5C315.5 228.167 297 251.833 275 277.5C253.333 302.833 230.167 327.5 205.5 351.5L177 274.5Z" fill="white"/>
</g>
<defs>
<clipPath id="clip0_425_16">
<rect width="808" height="808" fill="white"/>
</clipPath>
</defs>
</svg>
