<svg width="808" height="808" viewBox="0 0 808 808" fill="none" xmlns="http://www.w3.org/2000/svg">
<g clip-path="url(#clip0_425_16)">
<path d="M723.79 84.42C647.55 8.48 537.94 0 404 0C269.89 0 160.12 8.58 83.92 84.72C7.72 160.86 0 270.43 0 404.39C0 538.35 7.74 648 84 724.14C160.26 800.28 269.9 808 404 808C538.1 808 647.85 800.29 724 724.14C800.15 647.99 808 538.36 808 404.39C808 270.25 800.16 160.54 723.79 84.42Z" fill="white"/>
<path d="M135.2 221.4H372.5V268.8H135.2V221.4ZM228.5 240.3H278.9V487.2H228.5V240.3ZM120.8 325.2H386.9V373.2H120.8V325.2ZM689.9 302.7V343.8H509V302.7H689.9ZM676.7 237.6V278.4H518.6V237.6H676.7ZM620.9 213.9V327.9H576.8V213.9H620.9ZM682.4 371.4V411.6H600.8V371.4H682.4ZM621.8 330.6V460.2H577.7V330.6H621.8ZM486.5 335.7V488.1H445.1V354.9L486.5 335.7ZM483.2 459.6C492.4 449.2 499.2 439.5 503.6 430.5C508.2 421.5 511.5 411.9 513.5 401.7C515.5 391.5 517.2 377.5 518.6 359.7L560.6 364.8C557.8 394 553.2 418.2 546.8 437.4C540.4 456.6 530.1 474.1 515.9 489.9L483.2 459.6ZM550.4 396.3C553.8 408.9 558.4 418.5 564.2 425.1C570.2 431.7 577.3 436.2 585.5 438.6C593.7 441 604.1 442.2 616.7 442.2H690.5L682.1 482.7H616.7C599.3 482.7 584.7 480.8 572.9 477C561.1 473.4 550.8 466.9 542 457.5C533.4 447.9 526 434.5 519.8 417.3L550.4 396.3ZM416.3 365.7C426.5 356.3 437.5 343.9 449.3 328.5C461.3 312.9 471.1 298.4 478.7 285L512.3 309.3C504.1 324.5 491.9 341.9 475.7 361.5C459.7 380.9 443.9 397.9 428.3 412.5L416.3 365.7ZM417.8 273.3C426.8 266.3 436.1 256.9 445.7 245.1C455.5 233.1 464.8 220 473.6 205.8L509.9 232.5C500.9 245.5 489.8 259.7 476.6 275.1C463.6 290.3 449.7 305.1 434.9 319.5L417.8 273.3Z" fill="black"/>
<path d="M169.608 630.16C163.123 630.16 157.533 628.923 152.84 626.448C148.147 623.973 144.435 620.475 141.704 615.952L147.592 611.856C149.811 615.611 152.84 618.469 156.68 620.432C160.52 622.395 164.829 623.376 169.608 623.376C176.605 623.376 182.109 621.2 186.12 616.848C190.131 612.496 192.136 606.224 192.136 598.032V587.92H191.624C189.405 592.613 186.291 596.283 182.28 598.928C178.269 601.488 173.661 602.768 168.456 602.768C162.909 602.768 157.917 601.275 153.48 598.288C149.043 595.301 145.587 591.12 143.112 585.744C140.637 580.283 139.4 574.139 139.4 567.312C139.4 560.571 140.637 554.597 143.112 549.392C145.587 544.101 149.043 540.005 153.48 537.104C157.917 534.117 162.909 532.624 168.456 532.624C173.405 532.624 177.885 533.989 181.896 536.72C185.907 539.365 189.149 543.035 191.624 547.728H192.136V534.8H199.304V597.904C199.304 604.731 198.109 610.533 195.72 615.312C193.331 620.176 189.917 623.845 185.48 626.32C181.043 628.88 175.752 630.16 169.608 630.16ZM169.992 595.856C174.344 595.856 178.227 594.704 181.64 592.4C185.053 590.011 187.699 586.683 189.576 582.416C191.453 578.149 192.392 573.285 192.392 567.824C192.392 562.363 191.411 557.499 189.448 553.232C187.571 548.88 184.883 545.552 181.384 543.248C177.971 540.859 174.088 539.664 169.736 539.664C165.299 539.664 161.288 540.859 157.704 543.248C154.205 545.552 151.475 548.837 149.512 553.104C147.635 557.371 146.696 562.235 146.696 567.696C146.696 573.243 147.677 578.149 149.64 582.416C151.603 586.597 154.333 589.883 157.832 592.272C161.416 594.661 165.469 595.856 169.992 595.856ZM236.523 603.536C232.171 603.536 228.416 602.768 225.259 601.232C222.102 599.696 219.627 597.52 217.835 594.704C216.128 591.888 215.275 588.645 215.275 584.976C215.275 580.283 216.47 576.272 218.859 572.944C221.334 569.531 225.003 566.971 229.867 565.264C234.731 563.472 240.704 562.576 247.787 562.576H260.459V557.328C260.459 551.781 258.838 547.387 255.595 544.144C252.352 540.816 247.915 539.152 242.283 539.152C238.699 539.152 235.414 539.877 232.427 541.328C229.44 542.779 226.923 544.912 224.875 547.728L219.243 543.76C221.974 540.005 225.302 537.232 229.227 535.44C233.238 533.563 237.632 532.624 242.411 532.624C247.446 532.624 251.84 533.648 255.595 535.696C259.435 537.659 262.379 540.475 264.427 544.144C266.56 547.813 267.627 552.165 267.627 557.2V601.744H260.459V590.224H259.947C257.643 594.491 254.4 597.776 250.219 600.08C246.038 602.384 241.472 603.536 236.523 603.536ZM237.675 597.008C241.515 597.008 245.184 596.155 248.683 594.448C252.182 592.741 254.998 590.309 257.131 587.152C259.35 583.995 260.459 580.283 260.459 576.016V569.104H249.067C240.022 569.104 233.323 570.427 228.971 573.072C224.619 575.632 222.443 579.472 222.443 584.592C222.443 588.347 223.808 591.376 226.539 593.68C229.355 595.899 233.067 597.008 237.675 597.008ZM286.1 601.744V534.416H293.14V546.704H293.652C295.7 542.437 298.815 539.024 302.996 536.464C307.263 533.904 311.828 532.624 316.692 532.624C324.201 532.624 330.089 535.056 334.356 539.92C338.708 544.784 340.884 551.483 340.884 560.016V601.744H333.844V561.168C333.844 554.512 332.095 549.179 328.596 545.168C325.183 541.157 320.703 539.152 315.156 539.152C310.804 539.152 306.964 540.219 303.636 542.352C300.308 544.4 297.705 547.173 295.828 550.672C294.036 554.085 293.14 557.84 293.14 561.936V601.744H286.1ZM380.086 603.408C374.71 603.408 370.486 601.701 367.414 598.288C364.427 594.875 362.934 590.011 362.934 583.696V514.448H370.102V583.056C370.102 587.408 371.126 590.779 373.174 593.168C375.222 595.557 377.995 596.752 381.494 596.752C383.627 596.752 385.974 596.24 388.534 595.216V601.872C386.059 602.896 383.243 603.408 380.086 603.408ZM352.31 541.072V534.416H390.07V541.072H352.31ZM427.727 603.536C421.839 603.536 416.591 602.085 411.983 599.184C407.46 596.197 403.962 592.016 401.487 586.64C399.012 581.264 397.775 575.077 397.775 568.08C397.775 561.083 399.012 554.896 401.487 549.52C403.962 544.144 407.46 540.005 411.983 537.104C416.591 534.117 421.839 532.624 427.727 532.624C433.7 532.624 438.948 534.117 443.471 537.104C447.994 540.005 451.492 544.144 453.967 549.52C456.527 554.896 457.807 561.083 457.807 568.08C457.807 575.077 456.527 581.264 453.967 586.64C451.492 592.016 447.994 596.197 443.471 599.184C438.948 602.085 433.7 603.536 427.727 603.536ZM427.727 596.88C432.25 596.88 436.26 595.685 439.759 593.296C443.258 590.821 445.946 587.451 447.823 583.184C449.7 578.832 450.639 573.797 450.639 568.08C450.639 562.363 449.7 557.371 447.823 553.104C445.946 548.752 443.258 545.381 439.759 542.992C436.26 540.517 432.25 539.28 427.727 539.28C423.29 539.28 419.322 540.517 415.823 542.992C412.324 545.381 409.636 548.752 407.759 553.104C405.882 557.371 404.943 562.363 404.943 568.08C404.943 573.797 405.882 578.832 407.759 583.184C409.636 587.451 412.324 590.821 415.823 593.296C419.322 595.685 423.29 596.88 427.727 596.88ZM471.1 591.376H481.34V601.744H471.1V591.376ZM500.475 601.744V534.416H507.643L507.515 546.192H508.027C510.16 542.096 513.019 538.811 516.603 536.336C520.272 533.861 524.198 532.624 528.379 532.624C533.158 532.624 537.254 534.032 540.667 536.848C544.166 539.664 546.768 543.675 548.475 548.88H548.859C550.822 543.845 553.851 539.877 557.947 536.976C562.128 534.075 566.822 532.624 572.027 532.624C579.024 532.624 584.528 535.099 588.539 540.048C592.635 544.912 594.683 551.568 594.683 560.016V601.744H587.515V561.168C587.515 554.512 585.979 549.179 582.907 545.168C579.835 541.157 575.739 539.152 570.619 539.152C566.864 539.152 563.494 540.133 560.507 542.096C557.606 543.973 555.302 546.619 553.595 550.032C551.974 553.445 551.163 557.413 551.163 561.936V601.744H543.995V561.168C543.995 556.816 543.27 552.976 541.819 549.648C540.454 546.32 538.491 543.76 535.931 541.968C533.371 540.091 530.427 539.152 527.099 539.152C523.6 539.152 520.358 540.133 517.371 542.096C514.384 544.059 511.995 546.789 510.203 550.288C508.411 553.701 507.515 557.584 507.515 561.936V601.744H500.475ZM641.004 603.28C634.775 603.28 629.313 601.829 624.62 598.928C619.927 596.027 616.3 591.931 613.74 586.64C611.18 581.349 609.9 575.205 609.9 568.208C609.9 561.125 611.095 554.896 613.484 549.52C615.959 544.144 619.457 540.005 623.98 537.104C628.588 534.117 633.921 532.624 639.98 532.624C645.612 532.624 650.561 533.904 654.828 536.464C659.18 539.024 662.551 542.651 664.94 547.344C667.329 551.952 668.524 557.285 668.524 563.344C668.524 565.307 668.311 567.397 667.884 569.616H615.532L615.788 563.216H661.228C661.228 558.523 660.375 554.384 658.668 550.8C657.047 547.131 654.615 544.272 651.372 542.224C648.215 540.176 644.417 539.152 639.98 539.152C635.457 539.152 631.447 540.304 627.948 542.608C624.535 544.912 621.889 548.24 620.012 552.592C618.135 556.944 617.196 562.192 617.196 568.336C617.196 573.968 618.177 578.96 620.14 583.312C622.103 587.579 624.876 590.907 628.46 593.296C632.129 595.6 636.311 596.752 641.004 596.752C645.1 596.752 648.983 595.771 652.652 593.808C656.321 591.76 659.18 588.987 661.228 585.488L666.732 589.2C664.257 593.552 660.759 597.008 656.236 599.568C651.713 602.043 646.636 603.28 641.004 603.28Z" fill="black"/>
</g>
<defs>
<clipPath id="clip0_425_16">
<rect width="808" height="808" fill="white"/>
</clipPath>
</defs>
</svg>
