<svg width="808" height="808" viewBox="0 0 808 808" fill="none" xmlns="http://www.w3.org/2000/svg">
<path d="M723.79 84.42C647.55 8.48 537.94 0 404 0C269.89 0 160.12 8.58 83.92 84.72C7.72 160.86 0 270.43 0 404.39C0 538.35 7.74 648 84 724.14C160.26 800.28 269.9 808 404 808C538.1 808 647.85 800.29 724 724.14C800.15 647.99 808 538.36 808 404.39C808 270.25 800.16 160.54 723.79 84.42Z" fill="white"/>
<path d="M374.26 553.72C374.26 554.381 374.129 555.037 373.874 555.647C373.619 556.258 373.245 556.812 372.775 557.277C372.304 557.742 371.746 558.109 371.132 558.357C370.518 558.604 369.862 558.728 369.2 558.72H300.3C299.635 558.729 298.975 558.607 298.358 558.36C297.74 558.114 297.177 557.748 296.702 557.283C296.226 556.819 295.847 556.265 295.586 555.653C295.324 555.042 295.187 554.385 295.18 553.72V373.53C295.187 372.865 295.324 372.208 295.586 371.596C295.847 370.985 296.226 370.431 296.702 369.966C297.177 369.502 297.74 369.136 298.358 368.889C298.975 368.643 299.635 368.521 300.3 368.53H369.2C369.862 368.522 370.518 368.645 371.132 368.893C371.746 369.141 372.304 369.508 372.775 369.973C373.245 370.438 373.619 370.992 373.874 371.602C374.129 372.213 374.26 372.868 374.26 373.53V553.72Z" fill="black"/>
<path d="M238 555.556C238 556.012 237.869 556.463 237.614 556.883C237.359 557.304 236.986 557.685 236.516 558.006C236.046 558.326 235.488 558.579 234.875 558.749C234.262 558.92 233.606 559.005 232.945 559H164.115C163.451 559.006 162.791 558.922 162.174 558.752C161.557 558.582 160.995 558.33 160.52 558.01C160.045 557.69 159.666 557.309 159.405 556.887C159.144 556.466 159.007 556.014 159 555.556V431.444C159.007 430.986 159.144 430.534 159.405 430.113C159.666 429.691 160.045 429.31 160.52 428.99C160.995 428.67 161.557 428.418 162.174 428.248C162.791 428.078 163.451 427.994 164.115 428H232.945C233.606 427.995 234.262 428.08 234.875 428.251C235.488 428.421 236.046 428.674 236.516 428.994C236.986 429.315 237.359 429.696 237.614 430.117C237.869 430.537 238 430.988 238 431.444V555.556Z" fill="black"/>
<path d="M510 552.401C510 553.274 509.869 554.139 509.614 554.944C509.359 555.75 508.986 556.481 508.516 557.095C508.046 557.709 507.488 558.193 506.875 558.52C506.262 558.847 505.606 559.01 504.945 558.999H436.115C435.451 559.012 434.791 558.85 434.174 558.525C433.557 558.2 432.995 557.717 432.52 557.104C432.045 556.49 431.666 555.759 431.405 554.952C431.144 554.145 431.007 553.278 431 552.401V314.599C431.007 313.722 431.144 312.855 431.405 312.048C431.666 311.241 432.045 310.51 432.52 309.896C432.995 309.283 433.557 308.8 434.174 308.475C434.791 308.15 435.451 307.988 436.115 308.001H504.945C505.606 307.99 506.262 308.153 506.875 308.48C507.488 308.807 508.046 309.291 508.516 309.905C508.986 310.519 509.359 311.25 509.614 312.056C509.869 312.861 510 313.726 510 314.599V552.401Z" fill="black"/>
<path d="M644.29 553.72C644.274 555.057 643.73 556.333 642.776 557.27C641.823 558.207 640.537 558.728 639.2 558.72H573.57C572.907 558.731 572.248 558.609 571.632 558.363C571.016 558.116 570.456 557.75 569.983 557.284C569.51 556.819 569.135 556.264 568.878 555.652C568.622 555.04 568.49 554.384 568.49 553.72V254.31C568.49 253.647 568.622 252.99 568.878 252.378C569.135 251.766 569.51 251.211 569.983 250.746C570.456 250.281 571.016 249.914 571.632 249.668C572.248 249.421 572.907 249.3 573.57 249.31H639.2C640.537 249.302 641.823 249.824 642.776 250.76C643.73 251.697 644.274 252.973 644.29 254.31V553.72Z" fill="black"/>
</svg>
